<svg xmlns="http://www.w3.org/2000/svg" xmlns:xlink="http://www.w3.org/1999/xlink" width="1500" zoomAndPan="magnify" viewBox="0 0 1125 374.999991" height="500" preserveAspectRatio="xMidYMid meet" version="1.0"><defs><clipPath id="cc3e2f7bf8"><path d="M 812 44.324219 L 1100 44.324219 L 1100 330.824219 L 812 330.824219 Z M 812 44.324219 " clip-rule="nonzero"/></clipPath></defs><path fill="#000000" d="M 155.4375 107.875 C 158.824219 107.460938 162.21875 107.25 165.628906 107.242188 C 171.742188 107.144531 177.757812 107.871094 183.675781 109.429688 C 189.589844 110.984375 195.1875 113.3125 200.460938 116.40625 C 203.054688 117.984375 205.511719 119.746094 207.839844 121.691406 C 210.167969 123.640625 212.335938 125.75 214.347656 128.019531 C 216.355469 130.292969 218.1875 132.703125 219.832031 135.25 C 221.480469 137.800781 222.929688 140.457031 224.179688 143.21875 L 299.039062 143.21875 C 291.074219 112.945312 275.28125 89.046875 251.652344 71.53125 C 228.023438 54.011719 199.609375 45.210938 166.40625 45.128906 C 152.734375 45.054688 139.277344 46.730469 126.039062 50.152344 Z M 155.4375 107.875 " fill-opacity="1" fill-rule="nonzero"/><path fill="#000000" d="M 200.460938 258.984375 C 195.1875 262.082031 189.59375 264.414062 183.675781 265.96875 C 177.761719 267.527344 171.746094 268.253906 165.628906 268.148438 C 144.648438 268.148438 127.648438 260.835938 114.632812 246.210938 C 101.617188 231.585938 95.117188 212.082031 95.132812 187.707031 C 95.132812 163.332031 101.632812 143.828125 114.632812 129.203125 L 116.460938 127.277344 L 86.183594 67.847656 C 81.769531 70.734375 77.546875 73.878906 73.519531 77.28125 C 69.496094 80.6875 65.691406 84.328125 62.113281 88.203125 C 58.539062 92.078125 55.210938 96.160156 52.140625 100.445312 C 49.066406 104.730469 46.269531 109.191406 43.746094 113.824219 C 31.800781 135.46875 25.828125 160.097656 25.828125 187.707031 C 25.828125 215.316406 31.800781 239.839844 43.746094 261.273438 C 46.628906 266.539062 49.867188 271.578125 53.457031 276.386719 C 57.050781 281.199219 60.960938 285.734375 65.1875 289.996094 C 69.417969 294.257812 73.921875 298.203125 78.703125 301.832031 C 83.488281 305.460938 88.5 308.734375 93.742188 311.660156 C 99.273438 314.722656 104.976562 317.414062 110.859375 319.730469 C 116.742188 322.050781 122.75 323.972656 128.882812 325.503906 C 135.015625 327.035156 141.222656 328.160156 147.503906 328.878906 C 153.785156 329.597656 160.085938 329.902344 166.40625 329.796875 C 199.609375 329.796875 228.046875 321.09375 251.722656 303.6875 C 275.402344 286.285156 291.199219 262.460938 299.113281 232.21875 L 224.179688 232.21875 C 222.929688 234.980469 221.484375 237.632812 219.835938 240.175781 C 218.1875 242.722656 216.359375 245.128906 214.347656 247.398438 C 212.335938 249.664062 210.167969 251.769531 207.839844 253.710938 C 205.511719 255.65625 203.054688 257.410156 200.460938 258.984375 Z M 200.460938 258.984375 " fill-opacity="1" fill-rule="nonzero"/><path fill="#000000" d="M 340.867188 48.300781 L 408.953125 48.300781 L 408.953125 327.894531 L 340.867188 327.894531 Z M 340.867188 48.300781 " fill-opacity="1" fill-rule="nonzero"/><path fill="#000000" d="M 774.960938 48.300781 L 774.960938 327.894531 L 706.851562 327.894531 L 706.851562 160.210938 L 644.328125 327.894531 L 589.382812 327.894531 L 526.445312 159.820312 L 526.445312 327.894531 L 458.335938 327.894531 L 458.335938 48.300781 L 538.777344 48.300781 L 617.246094 241.773438 L 694.910156 48.300781 Z M 774.960938 48.300781 " fill-opacity="1" fill-rule="nonzero"/><g clip-path="url(#cc3e2f7bf8)"><path fill="#000000" d="M 883.875 312.464844 C 878.472656 309.472656 873.296875 306.128906 868.347656 302.4375 C 863.398438 298.746094 858.722656 294.738281 854.316406 290.410156 C 849.90625 286.085938 845.8125 281.484375 842.027344 276.605469 C 838.242188 271.730469 834.800781 266.617188 831.707031 261.273438 C 828.46875 255.695312 825.625 249.921875 823.167969 243.957031 C 820.710938 237.988281 818.664062 231.886719 817.035156 225.644531 C 815.402344 219.402344 814.199219 213.078125 813.425781 206.671875 C 812.648438 200.269531 812.308594 193.839844 812.402344 187.390625 C 812.304688 180.957031 812.644531 174.546875 813.417969 168.15625 C 814.191406 161.769531 815.394531 155.464844 817.027344 149.238281 C 818.65625 143.015625 820.703125 136.929688 823.160156 130.984375 C 825.617188 125.035156 828.46875 119.285156 831.707031 113.726562 C 834.8125 108.394531 838.257812 103.300781 842.046875 98.433594 C 845.835938 93.570312 849.933594 88.980469 854.339844 84.664062 C 858.746094 80.351562 863.421875 76.351562 868.367188 72.667969 C 873.3125 68.984375 878.480469 65.644531 883.875 62.65625 C 886.632812 61.160156 889.4375 59.75 892.289062 58.429688 C 895.136719 57.105469 898.023438 55.875 900.949219 54.730469 C 903.875 53.585938 906.832031 52.535156 909.820312 51.578125 C 912.8125 50.617188 915.828125 49.75 918.875 48.980469 C 921.917969 48.207031 924.984375 47.53125 928.070312 46.949219 C 931.15625 46.367188 934.257812 45.882812 937.371094 45.492188 C 940.488281 45.105469 943.613281 44.8125 946.75 44.617188 C 949.882812 44.421875 953.019531 44.324219 956.160156 44.324219 C 959.300781 44.324219 962.4375 44.421875 965.574219 44.617188 C 968.707031 44.8125 971.832031 45.105469 974.949219 45.492188 C 978.066406 45.882812 981.167969 46.367188 984.253906 46.949219 C 987.339844 47.53125 990.40625 48.207031 993.449219 48.980469 C 996.492188 49.75 999.511719 50.617188 1002.5 51.578125 C 1005.492188 52.535156 1008.449219 53.585938 1011.375 54.730469 C 1014.300781 55.875 1017.1875 57.105469 1020.035156 58.429688 C 1022.882812 59.75 1025.6875 61.160156 1028.449219 62.65625 C 1033.824219 65.625 1038.972656 68.945312 1043.894531 72.617188 C 1048.8125 76.289062 1053.460938 80.277344 1057.835938 84.585938 C 1062.214844 88.894531 1066.273438 93.476562 1070.023438 98.339844 C 1073.773438 103.203125 1077.171875 108.300781 1080.222656 113.628906 C 1083.402344 119.207031 1086.199219 124.976562 1088.609375 130.929688 C 1091.019531 136.882812 1093.023438 142.972656 1094.621094 149.191406 C 1096.21875 155.414062 1097.394531 161.714844 1098.152344 168.089844 C 1098.90625 174.46875 1099.238281 180.871094 1099.140625 187.292969 C 1099.238281 193.746094 1098.90625 200.175781 1098.144531 206.585938 C 1097.378906 212.996094 1096.191406 219.324219 1094.578125 225.574219 C 1092.960938 231.820312 1090.9375 237.933594 1088.5 243.914062 C 1086.066406 249.890625 1083.242188 255.675781 1080.027344 261.273438 C 1076.976562 266.617188 1073.574219 271.726562 1069.828125 276.605469 C 1066.078125 281.480469 1062.015625 286.082031 1057.640625 290.410156 C 1053.265625 294.734375 1048.617188 298.742188 1043.699219 302.4375 C 1038.777344 306.128906 1033.628906 309.472656 1028.253906 312.464844 C 1025.496094 313.960938 1022.695312 315.367188 1019.851562 316.6875 C 1017.007812 318.007812 1014.125 319.242188 1011.203125 320.382812 C 1008.28125 321.523438 1005.328125 322.574219 1002.339844 323.53125 C 999.355469 324.492188 996.34375 325.355469 993.300781 326.128906 C 990.261719 326.898438 987.199219 327.574219 984.117188 328.15625 C 981.035156 328.738281 977.941406 329.222656 974.828125 329.609375 C 971.714844 330 968.59375 330.289062 965.464844 330.484375 C 962.332031 330.679688 959.199219 330.777344 956.0625 330.777344 C 952.925781 330.777344 949.792969 330.679688 946.664062 330.484375 C 943.535156 330.289062 940.410156 330 937.300781 329.609375 C 934.1875 329.222656 931.089844 328.738281 928.007812 328.15625 C 924.925781 327.574219 921.867188 326.898438 918.824219 326.128906 C 915.785156 325.355469 912.773438 324.492188 909.785156 323.53125 C 906.800781 322.574219 903.84375 321.523438 900.925781 320.382812 C 898.003906 319.242188 895.121094 318.007812 892.277344 316.6875 C 889.429688 315.367188 886.628906 313.960938 883.875 312.464844 Z M 1009.726562 246.332031 C 1023.136719 231.480469 1029.839844 211.832031 1029.839844 187.390625 C 1029.839844 162.949219 1023.136719 143.238281 1009.726562 128.253906 C 996.320312 113.53125 978.445312 106.160156 956.101562 106.144531 C 933.527344 106.144531 915.539062 113.457031 902.132812 128.082031 C 888.722656 142.707031 882.019531 162.484375 882.019531 187.414062 C 882.019531 212.117188 888.722656 231.835938 902.132812 246.574219 C 915.539062 261.316406 933.550781 268.652344 956.171875 268.585938 C 978.484375 268.585938 996.34375 261.136719 1009.753906 246.234375 Z M 1009.726562 246.332031 " fill-opacity="1" fill-rule="nonzero"/></g></svg>