<?xml version="1.0" encoding="utf-8"?>
<!-- Generator: Adobe Illustrator 23.0.3, SVG Export Plug-In . SVG Version: 6.00 Build 0)  -->
<svg version="1.1" xmlns="http://www.w3.org/2000/svg" xmlns:xlink="http://www.w3.org/1999/xlink" x="0px" y="0px"
	 viewBox="0 0 500 500" style="enable-background:new 0 0 500 500;" xml:space="preserve">
<style type="text/css">
	.st0{fill:#0E3399;}
	.st1{enable-background:new    ;}
	.st2{clip-path:url(#SVGID_2_);enable-background:new    ;}
	.st3{fill:#858585;}
	.st4{fill:#808080;}
	.st5{clip-path:url(#SVGID_4_);enable-background:new    ;}
	.st6{fill:#A8A8A8;}
	.st7{fill:#A3A3A3;}
	.st8{fill:#9E9E9E;}
	.st9{fill:#DFDFDF;}
	.st10{clip-path:url(#SVGID_6_);enable-background:new    ;}
	.st11{fill:#8F8F8F;}
	.st12{fill:#8A8A8A;}
	.st13{fill:#B4B4B4;}
	.st14{clip-path:url(#SVGID_8_);enable-background:new    ;}
	.st15{fill:#999999;}
	.st16{fill:#949494;}
	.st17{clip-path:url(#SVGID_10_);enable-background:new    ;}
</style>
<g id="Vrstva_2">
	<rect class="st0" width="500" height="500"/>
</g>
<g id="Vrstva_1">
	<g>
		<g>
			<g class="st1">
				<g class="st1">
					<defs>
						<path id="SVGID_1_" class="st1" d="M288.8,147.1l31.9,17.4c2.6,1.4,5.1,3.1,7.5,4.9c2.8,2.1,5.4,4.5,7.8,7.1
							c2.4,2.6,4.6,5.4,6.6,8.4c2,3,3.7,6.2,5.2,9.6L315.9,177c-1.5-3.4-3.2-6.5-5.2-9.6c-2-3-4.2-5.8-6.6-8.4
							c-2.4-2.6-5-4.9-7.8-7.1C293.9,150.2,291.4,148.5,288.8,147.1z"/>
					</defs>
					<clipPath id="SVGID_2_">
						<use xlink:href="#SVGID_1_"  style="overflow:visible;"/>
					</clipPath>
					<g class="st2">
						<path class="st3" d="M347.9,194.4L315.9,177c-1.5-3.4-3.2-6.5-5.2-9.6c-2-3-4.2-5.8-6.6-8.4c-2.4-2.6-5-4.9-7.8-7.1
							c-2.4-1.8-4.9-3.4-7.5-4.9l31.9,17.4c2.6,1.4,5.1,3.1,7.5,4.9c2.8,2.1,5.4,4.5,7.8,7.1c2.4,2.6,4.6,5.4,6.6,8.4
							C344.6,187.8,346.4,191,347.9,194.4"/>
					</g>
				</g>
				<g>
					<polygon class="st4" points="269,159.3 237.1,142 201.6,71.5 233.5,88.9 					"/>
				</g>
				<g class="st1">
					<defs>
						<path id="SVGID_3_" class="st1" d="M339.8,73.6L371.7,91c-26.4-14.4-57.4-19-93.2-14c-0.3,0-0.6,0.1-0.9,0.1
							c-14.9,2.1-29.6,6-44.1,11.8l-31.9-17.4c14.5-5.8,29.2-9.7,44.1-11.8c0.3,0,0.6-0.1,0.9-0.1C282.4,54.6,313.4,59.3,339.8,73.6
							z"/>
					</defs>
					<clipPath id="SVGID_4_">
						<use xlink:href="#SVGID_3_"  style="overflow:visible;"/>
					</clipPath>
					<g class="st5">
						<path class="st6" d="M233.5,88.9l-31.9-17.4c14.5-5.8,29.2-9.7,44.1-11.8c0.3,0,0.6-0.1,0.9-0.1c23.4-3.3,44.8-2.4,64.2,2.6
							l31.9,17.4c-19.4-5-40.8-5.9-64.2-2.6c-0.3,0-0.6,0.1-0.9,0.1C262.7,79.2,248,83.1,233.5,88.9"/>
						<path class="st7" d="M342.7,79.6l-31.9-17.4c8.5,2.2,16.7,5.2,24.4,9l31.9,17.4C359.4,84.8,351.2,81.8,342.7,79.6"/>
						<path class="st8" d="M367.1,88.6l-31.9-17.4c1.5,0.8,3.1,1.6,4.6,2.4L371.7,91C370.2,90.2,368.7,89.4,367.1,88.6"/>
					</g>
				</g>
				<g>
					<path class="st9" d="M381.1,96.7c28.4,18.8,47.4,47.1,56.9,85l-90.1,12.7c-1.5-3.4-3.2-6.5-5.2-9.6c-2-3-4.2-5.8-6.6-8.4
						c-2.4-2.6-5-4.9-7.8-7.1c-2.8-2.1-5.8-4-8.9-5.6c-6.3-3.1-13.1-5.2-20.2-6.2c-6.7-1-13.5-0.9-20.4,0c-0.4,0.1-0.9,0.1-1.3,0.2
						c-2.9,0.4-5.7,0.9-8.5,1.6l-35.5-70.4c14.5-5.8,29.2-9.7,44.1-11.8c0.3,0,0.6-0.1,0.9-0.1C318.6,71.4,352.8,77.9,381.1,96.7z"
						/>
				</g>
			</g>
		</g>
	</g>
	<g>
		<g>
			<g class="st1">
				<g class="st1">
					<defs>
						<path id="SVGID_5_" class="st1" d="M335,318.1l-31.9-17.4c2-3.6,3.7-7.3,5.3-11l31.9,17.4C338.7,310.8,337,314.5,335,318.1z"
							/>
					</defs>
					<clipPath id="SVGID_6_">
						<use xlink:href="#SVGID_5_"  style="overflow:visible;"/>
					</clipPath>
					<g class="st10">
						<path class="st11" d="M335,318.1l-31.9-17.4c0.2-0.4,0.5-0.8,0.7-1.3l31.9,17.4C335.4,317.2,335.2,317.6,335,318.1"/>
						<path class="st12" d="M335.7,316.8l-31.9-17.4c1.7-3.2,3.2-6.4,4.6-9.8l31.9,17.4C338.9,310.4,337.4,313.6,335.7,316.8"/>
					</g>
				</g>
				<g>
					<polygon class="st13" points="340.2,307 308.3,289.7 398.5,277 430.4,294.4 					"/>
				</g>
				<g class="st1">
					<defs>
						<path id="SVGID_7_" class="st1" d="M225,356.7l-31.9-17.4c12.7,6.9,27.6,9.1,44.7,6.7c0.4-0.1,0.9-0.1,1.3-0.2
							c6.9-1,13.7-2.9,20.4-5.7c7.1-3,13.9-7,20.2-11.9c3.1-2.5,6.1-5.2,8.9-8.1c2.8-2.9,5.4-6,7.8-9.3c2.4-3.3,4.6-6.7,6.6-10.3
							l31.9,17.4c-2,3.6-4.2,7-6.6,10.3c-2.4,3.3-5,6.4-7.8,9.3c-2.8,2.9-5.8,5.6-8.9,8.1c-6.4,4.9-13.1,8.9-20.2,11.9
							c-6.7,2.8-13.5,4.7-20.4,5.7c-0.4,0.1-0.9,0.1-1.3,0.2C252.6,365.8,237.7,363.6,225,356.7z"/>
					</defs>
					<clipPath id="SVGID_8_">
						<use xlink:href="#SVGID_7_"  style="overflow:visible;"/>
					</clipPath>
					<g class="st14">
						<path class="st8" d="M225,356.7l-31.9-17.4c0.7,0.4,1.5,0.8,2.2,1.1l31.9,17.4C226.5,357.5,225.7,357.1,225,356.7"/>
						<path class="st7" d="M227.2,357.8l-31.9-17.4c3.7,1.8,7.6,3.3,11.7,4.3l31.9,17.4C234.8,361.1,230.9,359.7,227.2,357.8"/>
						<path class="st6" d="M238.9,362.2L207,344.8c9.3,2.4,19.5,2.8,30.7,1.3c0.4-0.1,0.9-0.1,1.3-0.2c6.9-1,13.7-2.9,20.4-5.7
							c1.1-0.5,2.2-0.9,3.3-1.5l31.9,17.4c-1.1,0.5-2.2,1-3.3,1.5c-6.7,2.8-13.5,4.7-20.4,5.7c-0.4,0.1-0.9,0.1-1.3,0.2
							C258.5,365,248.2,364.6,238.9,362.2"/>
						<path class="st7" d="M294.6,356.1l-31.9-17.4c4.5-2.1,8.8-4.6,12.9-7.5l31.9,17.4C303.4,351.5,299.1,354,294.6,356.1"/>
						<path class="st8" d="M307.5,348.6l-31.9-17.4c1.4-0.9,2.7-1.9,4.1-3c1.5-1.2,2.9-2.4,4.3-3.6l31.9,17.4
							c-1.4,1.3-2.8,2.5-4.3,3.6C310.3,346.7,308.9,347.7,307.5,348.6"/>
						<path class="st15" d="M315.9,342L284,324.7c1.6-1.4,3.1-2.9,4.6-4.4c0.9-1,1.9-2,2.8-3l31.9,17.4c-0.9,1-1.8,2-2.8,3
							C319,339.1,317.5,340.6,315.9,342"/>
						<path class="st16" d="M323.3,334.6l-31.9-17.4c1.8-2,3.5-4.1,5.1-6.3c0.5-0.6,0.9-1.3,1.4-1.9l31.9,17.4
							c-0.5,0.7-0.9,1.3-1.4,1.9C326.7,330.5,325,332.6,323.3,334.6"/>
						<path class="st11" d="M329.7,326.4L297.8,309c1.9-2.7,3.6-5.5,5.2-8.3l31.9,17.4C333.4,320.9,331.6,323.7,329.7,326.4"/>
					</g>
				</g>
				<g class="st1">
					<defs>
						<path id="SVGID_9_" class="st1" d="M175.4,428.4l-31.9-17.4c-3.6-2-7.1-4.1-10.6-6.4c-5.7-3.9-11.2-8.3-16.2-13.1
							c-5.1-4.8-9.8-10-14.1-15.7c-4.3-5.6-8.2-11.6-11.7-18c-14.3-25.9-21.5-56.8-21.4-92.6c0.1-35.8,7.3-68.8,21.8-98.9
							c5.8-12.3,12.8-23.9,21-34.8c8.2-10.9,17.3-20.7,27.3-29.5l31.9,17.4c-10,8.8-19.1,18.7-27.3,29.5
							c-8.2,10.9-15.2,22.4-21,34.8c-14.4,30.1-21.7,63.1-21.8,98.9c-0.1,35.8,7.1,66.7,21.4,92.6c3.5,6.3,7.4,12.3,11.7,18
							c4.3,5.6,9,10.9,14.1,15.7c5.1,4.8,10.5,9.2,16.2,13.1C168.3,424.3,171.8,426.5,175.4,428.4z"/>
					</defs>
					<clipPath id="SVGID_10_">
						<use xlink:href="#SVGID_9_"  style="overflow:visible;"/>
					</clipPath>
					<g class="st17">
						<path class="st3" d="M175.4,428.4l-31.9-17.4c-3.6-2-7.1-4.1-10.6-6.4c-5.7-3.9-11.2-8.3-16.2-13.1c-5.1-4.8-9.8-10-14.1-15.7
							c-4.3-5.6-8.2-11.6-11.7-18c-14.3-25.9-21.5-56.8-21.4-92.6c0.1-28.5,4.7-55.2,13.8-80.1l31.9,17.4
							c-9.2,24.9-13.8,51.6-13.8,80.1c-0.1,35.8,7.1,66.7,21.4,92.6c3.5,6.3,7.4,12.3,11.7,18c4.3,5.6,9,10.9,14.1,15.7
							c5.1,4.8,10.5,9.2,16.2,13.1C168.3,424.3,171.8,426.5,175.4,428.4"/>
						<path class="st12" d="M115.3,202.6l-31.9-17.4c2.3-6.4,5-12.6,7.9-18.8c1.5-3.1,3-6.2,4.7-9.2l31.9,17.4
							c-1.6,3-3.2,6.1-4.7,9.2C120.3,189.9,117.6,196.2,115.3,202.6"/>
						<path class="st11" d="M127.9,174.6L96,157.2c3.8-7,7.9-13.7,12.5-20.2l31.9,17.4C135.8,160.8,131.7,167.6,127.9,174.6"/>
						<path class="st16" d="M140.4,154.4L108.5,137c1.3-1.8,2.6-3.6,3.9-5.3c3.2-4.2,6.5-8.3,10-12.2l31.9,17.4
							c-3.5,3.9-6.8,8-10,12.2C142.9,150.8,141.6,152.6,140.4,154.4"/>
						<path class="st15" d="M154.2,136.8l-31.9-17.4c4.9-5.6,10.1-10.8,15.6-15.8l31.9,17.4C164.3,125.9,159.1,131.2,154.2,136.8"/>
						<path class="st8" d="M169.8,121l-31.9-17.4c0.6-0.5,1.1-1,1.7-1.5l31.9,17.4C171,120,170.4,120.5,169.8,121"/>
					</g>
				</g>
				<g>
					<path class="st9" d="M335,318.1c2-3.6,3.7-7.3,5.3-11l90.1-12.7c-9.6,40.8-28.7,74.3-57.1,100.8
						c-28.6,26.6-62.8,42.7-102.8,48.3c-1,0.2-2,0.3-2.9,0.4c-6.6,0.9-13.2,1.5-19.8,1.6c-7.6,0.1-15-0.3-22.4-1.2
						c-7.4-0.9-14.6-2.4-21.7-4.4c-7.1-2-13.9-4.5-20.6-7.6c-6.3-2.9-12.3-6.3-18.1-10.2c-5.7-3.9-11.2-8.3-16.2-13.1
						c-5.1-4.8-9.8-10-14.1-15.7c-4.3-5.6-8.2-11.6-11.7-18c-14.3-25.9-21.5-56.8-21.4-92.6c0.1-35.8,7.3-68.8,21.8-98.9
						c5.8-12.3,12.8-23.9,21-34.8c8.2-10.9,17.3-20.7,27.3-29.5l36.7,72.7c-15.4,21.1-23.2,47.3-23.2,78.7
						c-0.1,31.6,7.7,55.8,23.3,72.6c15.6,16.8,36.1,23.4,61.3,19.9c0.4-0.1,0.9-0.1,1.3-0.2c6.9-1,13.7-2.9,20.4-5.7
						c7.1-3,13.9-7,20.2-11.9c3.1-2.5,6.1-5.2,8.9-8.1c2.8-2.9,5.4-6,7.8-9.3C330.8,325.1,333,321.6,335,318.1z"/>
				</g>
			</g>
		</g>
	</g>
</g>
</svg>
