<svg xmlns="http://www.w3.org/2000/svg" xmlns:xlink="http://www.w3.org/1999/xlink" viewBox="0 0 368.42 387.79"><defs><style>.cls-1{fill:none;}.cls-2{isolation:isolate;}.cls-3{clip-path:url(#clip-path);}.cls-4{fill:#858585;}.cls-5{fill:gray;}.cls-6{clip-path:url(#clip-path-2);}.cls-7{fill:#a8a8a8;}.cls-8{fill:#a3a3a3;}.cls-9{fill:#9e9e9e;}.cls-10{fill:#dfdfdf;}.cls-11{clip-path:url(#clip-path-3);}.cls-12{fill:#8f8f8f;}.cls-13{fill:#8a8a8a;}.cls-14{fill:#b4b4b4;}.cls-15{clip-path:url(#clip-path-4);}.cls-16{fill:#999;}.cls-17{fill:#949494;}.cls-18{clip-path:url(#clip-path-5);}</style><clipPath id="clip-path"><path class="cls-1" d="M219.18,89.42l31.91,17.36a60,60,0,0,1,15.37,11.93,63,63,0,0,1,6.6,8.41,66.71,66.71,0,0,1,5.22,9.56l-31.91-17.36a67.25,67.25,0,0,0-5.22-9.56,63,63,0,0,0-6.6-8.41,62,62,0,0,0-7.81-7.06A60.8,60.8,0,0,0,219.18,89.42Z"/></clipPath><clipPath id="clip-path-2"><path class="cls-1" d="M270.2,16l31.91,17.36Q262.5,11.78,209,19.31l-.92.13a192,192,0,0,0-44.15,11.77L132,13.85A192,192,0,0,1,176.12,2.08L177,2Q230.65-5.58,270.2,16Z"/></clipPath><clipPath id="clip-path-3"><path class="cls-1" d="M265.38,260.39,233.47,243a96.08,96.08,0,0,0,5.26-11l31.91,17.36A96.08,96.08,0,0,1,265.38,260.39Z"/></clipPath><clipPath id="clip-path-4"><path class="cls-1" d="M155.39,299l-31.91-17.36q19,10.35,44.67,6.75l1.34-.18a81.29,81.29,0,0,0,20.39-5.69,91.87,91.87,0,0,0,20.23-11.89,90.07,90.07,0,0,0,8.88-8.07,91.86,91.86,0,0,0,7.85-9.28A96.57,96.57,0,0,0,233.47,243l31.91,17.36a95,95,0,0,1-6.63,10.26,91.86,91.86,0,0,1-7.85,9.28A90.07,90.07,0,0,1,242,288a91.83,91.83,0,0,1-20.23,11.88,80.78,80.78,0,0,1-20.39,5.7l-1.34.18Q174.41,309.36,155.39,299Z"/></clipPath><clipPath id="clip-path-5"><path class="cls-1" d="M105.89,370.75,74,353.39q-5.45-3-10.58-6.44a127.56,127.56,0,0,1-16.25-13.07,134,134,0,0,1-14.09-15.66,139.78,139.78,0,0,1-11.66-18Q-.09,261.41,0,207.67t21.75-98.93A201.48,201.48,0,0,1,42.75,74,196.24,196.24,0,0,1,70,44.46l31.91,17.36A196.24,196.24,0,0,0,74.66,91.34a201.48,201.48,0,0,0-21,34.76Q32,171.28,31.91,225t21.4,92.6a139.21,139.21,0,0,0,11.66,18,134,134,0,0,0,14.09,15.66,128.44,128.44,0,0,0,16.25,13.07Q100.44,367.79,105.89,370.75Z"/></clipPath></defs><title>Datový zdroj 1</title><g id="Vrstva_2" data-name="Vrstva 2"><g id="Vrstva_1-2" data-name="Vrstva 1"><g class="cls-2"><g class="cls-2"><g class="cls-3"><g class="cls-2"><path class="cls-4" d="M278.28,136.68l-31.91-17.36a67.25,67.25,0,0,0-5.22-9.56,63,63,0,0,0-6.6-8.41,62,62,0,0,0-7.81-7.06,60.8,60.8,0,0,0-7.56-4.87l31.91,17.36a60,60,0,0,1,15.37,11.93,63,63,0,0,1,6.6,8.41,66.71,66.71,0,0,1,5.22,9.56"/></g></g></g><polygon class="cls-5" points="199.41 101.65 167.5 84.29 131.97 13.85 163.88 31.21 199.41 101.65"/><g class="cls-2"><g class="cls-6"><g class="cls-2"><path class="cls-7" d="M163.88,31.21,132,13.85A192,192,0,0,1,176.12,2.08L177,2q35.1-4.94,64.15,2.6L273.1,21.91Q244,14.38,209,19.31l-.92.13a192,192,0,0,0-44.15,11.77"/><path class="cls-8" d="M273.1,21.91,241.19,4.55a127.76,127.76,0,0,1,24.42,9L297.52,31a127.51,127.51,0,0,0-24.42-9"/><path class="cls-9" d="M297.52,31,265.61,13.59q2.31,1.14,4.59,2.38l31.91,17.36q-2.28-1.24-4.59-2.38"/></g></g></g><path class="cls-10" d="M311.53,39q42.62,28.17,56.89,85l-90.14,12.67a66.71,66.71,0,0,0-5.22-9.56,63,63,0,0,0-6.6-8.41,60.33,60.33,0,0,0-16.68-12.63,66.66,66.66,0,0,0-20.19-6.22,72.49,72.49,0,0,0-20.33,0l-1.4.21q-4.31.61-8.45,1.57L163.88,31.21A192,192,0,0,1,208,19.44l.92-.13Q269.07,10.87,311.53,39Z"/></g><g class="cls-2"><g class="cls-2"><g class="cls-11"><g class="cls-2"><path class="cls-12" d="M265.38,260.39,233.47,243l.71-1.3,31.91,17.36-.71,1.3"/><path class="cls-13" d="M266.09,259.09l-31.91-17.36a95.68,95.68,0,0,0,4.55-9.74l31.91,17.36a95.68,95.68,0,0,1-4.55,9.74"/></g></g></g><polygon class="cls-14" points="270.64 249.35 238.73 231.99 328.87 219.32 360.78 236.68 270.64 249.35"/><g class="cls-2"><g class="cls-15"><g class="cls-2"><path class="cls-9" d="M155.39,299l-31.91-17.36c.73.4,1.47.78,2.21,1.15l31.92,17.35c-.75-.36-1.49-.75-2.22-1.14"/><path class="cls-8" d="M157.61,300.15,125.69,282.8a61.81,61.81,0,0,0,11.74,4.34l31.91,17.36a61.07,61.07,0,0,1-11.73-4.35"/><path class="cls-7" d="M169.34,304.5l-31.91-17.36q13.95,3.62,30.72,1.26l1.34-.18a81.29,81.29,0,0,0,20.39-5.69c1.08-.46,2.15-.94,3.21-1.45L225,298.44q-1.59.76-3.21,1.44a80.78,80.78,0,0,1-20.39,5.7l-1.34.18q-16.77,2.36-30.72-1.26"/><path class="cls-8" d="M225,298.44l-31.91-17.36a91.12,91.12,0,0,0,13-7.51L238,290.93a91.12,91.12,0,0,1-13,7.51"/><path class="cls-9" d="M238,290.93,206.1,273.57c1.35-.94,2.69-1.91,4-2.93s2.86-2.34,4.24-3.58l31.91,17.36q-2.07,1.86-4.24,3.58c-1.32,1-2.65,2-4,2.93"/><path class="cls-16" d="M246.26,284.42l-31.91-17.36q2.39-2.15,4.64-4.49c.95-1,1.88-2,2.78-3l31.91,17.36c-.9,1-1.83,2-2.78,3-1.5,1.56-3.05,3.05-4.64,4.49"/><path class="cls-17" d="M253.68,276.92l-31.91-17.36q2.67-3,5.07-6.27c.49-.66,1-1.33,1.44-2l31.91,17.36c-.47.67-.95,1.34-1.44,2q-2.4,3.25-5.07,6.27"/><path class="cls-12" d="M260.19,268.65l-31.91-17.36a93.87,93.87,0,0,0,5.19-8.26l31.91,17.36a93.87,93.87,0,0,1-5.19,8.26"/></g></g></g><g class="cls-2"><g class="cls-18"><g class="cls-2"><path class="cls-4" d="M105.89,370.75,74,353.39q-5.45-3-10.58-6.44a127.56,127.56,0,0,1-16.25-13.07,134,134,0,0,1-14.09-15.66,139.78,139.78,0,0,1-11.66-18Q-.09,261.41,0,207.67q.08-42.79,13.82-80.14l31.91,17.36Q32,182.24,31.91,225q-.11,53.75,21.4,92.6a139.21,139.21,0,0,0,11.66,18,134,134,0,0,0,14.09,15.66,128.44,128.44,0,0,0,16.25,13.07q5.13,3.48,10.58,6.44"/><path class="cls-13" d="M45.73,144.89,13.82,127.53q3.51-9.57,7.93-18.79,2.22-4.67,4.65-9.2L58.32,116.9q-2.45,4.53-4.66,9.2-4.41,9.21-7.93,18.79"/><path class="cls-12" d="M58.32,116.9,26.4,99.54A201.86,201.86,0,0,1,38.89,79.3L70.8,96.66A200,200,0,0,0,58.32,116.9"/><path class="cls-17" d="M70.8,96.66,38.89,79.3c1.26-1.79,2.54-3.57,3.86-5.32q4.78-6.37,10-12.27L84.66,79.07q-5.22,5.9-10,12.27c-1.32,1.75-2.6,3.53-3.86,5.32"/><path class="cls-16" d="M84.66,79.07,52.75,61.71A191.55,191.55,0,0,1,68.34,46l31.91,17.35A193.26,193.26,0,0,0,84.66,79.07"/><path class="cls-9" d="M100.25,63.31,68.34,46q.84-.76,1.68-1.5l31.91,17.36-1.68,1.49"/></g></g></g><path class="cls-10" d="M265.38,260.39a96.08,96.08,0,0,0,5.26-11l90.14-12.67c-9.63,40.82-28.67,74.3-57.14,100.79s-62.82,42.67-102.8,48.28c-1,.17-2,.32-3,.46a162.16,162.16,0,0,1-19.72,1.56,154.49,154.49,0,0,1-22.41-1.23A147.61,147.61,0,0,1,134,382.1a144.11,144.11,0,0,1-20.59-7.58,127.57,127.57,0,0,1-34.33-23.28A134,134,0,0,1,65,335.58a139.21,139.21,0,0,1-11.66-18q-21.5-38.85-21.4-92.6T53.66,126.1a201.48,201.48,0,0,1,21-34.76,196.24,196.24,0,0,1,27.27-29.52l36.67,72.74q-23.14,31.6-23.24,78.74-.12,47.44,23.34,72.62t61.36,19.84l1.34-.18a80.78,80.78,0,0,0,20.39-5.7A91.83,91.83,0,0,0,242,288a90.07,90.07,0,0,0,8.88-8.07,91.86,91.86,0,0,0,7.85-9.28A95,95,0,0,0,265.38,260.39Z"/></g></g></g></svg>