<svg xmlns="http://www.w3.org/2000/svg" xmlns:xlink="http://www.w3.org/1999/xlink" width="1500" zoomAndPan="magnify" viewBox="0 0 1125 374.999991" height="500" preserveAspectRatio="xMidYMid meet" version="1.0"><defs><clipPath id="860e544050"><path d="M 812 44.324219 L 1100 44.324219 L 1100 330.824219 L 812 330.824219 Z M 812 44.324219 " clip-rule="nonzero"/></clipPath></defs><path fill="#ffffff" d="M 155.457031 107.910156 C 158.839844 107.496094 162.238281 107.285156 165.644531 107.273438 C 171.761719 107.175781 177.78125 107.90625 183.695312 109.464844 C 189.613281 111.019531 195.207031 113.347656 200.484375 116.445312 C 203.078125 118.023438 205.535156 119.785156 207.863281 121.734375 C 210.191406 123.679688 212.359375 125.792969 214.371094 128.066406 C 216.382812 130.339844 218.210938 132.75 219.859375 135.300781 C 221.507812 137.847656 222.957031 140.507812 224.207031 143.273438 L 299.074219 143.273438 C 291.109375 112.980469 275.3125 89.070312 251.679688 71.542969 C 228.050781 54.015625 199.632812 45.210938 166.425781 45.128906 C 152.75 45.054688 139.292969 46.730469 126.054688 50.15625 Z M 155.457031 107.910156 " fill-opacity="1" fill-rule="nonzero"/><path fill="#ffffff" d="M 200.484375 259.097656 C 195.210938 262.199219 189.613281 264.53125 183.699219 266.085938 C 177.78125 267.644531 171.761719 268.371094 165.644531 268.265625 C 144.664062 268.265625 127.664062 260.949219 114.644531 246.316406 C 101.625 231.683594 95.125 212.171875 95.140625 187.78125 C 95.140625 163.394531 101.640625 143.882812 114.644531 129.25 L 116.472656 127.324219 L 86.195312 67.863281 C 81.777344 70.746094 77.554688 73.894531 73.527344 77.300781 C 69.5 80.707031 65.699219 84.351562 62.121094 88.226562 C 58.542969 92.105469 55.214844 96.1875 52.144531 100.476562 C 49.070312 104.765625 46.273438 109.226562 43.75 113.859375 C 31.804688 135.515625 25.832031 160.160156 25.832031 187.78125 C 25.832031 215.40625 31.804688 239.945312 43.75 261.390625 C 46.632812 266.65625 49.871094 271.699219 53.460938 276.511719 C 57.054688 281.324219 60.964844 285.863281 65.195312 290.125 C 69.421875 294.390625 73.929688 298.335938 78.710938 301.96875 C 83.496094 305.597656 88.507812 308.875 93.75 311.800781 C 99.28125 314.867188 104.988281 317.558594 110.871094 319.878906 C 116.753906 322.195312 122.761719 324.121094 128.898438 325.652344 C 135.03125 327.183594 141.238281 328.3125 147.519531 329.03125 C 153.800781 329.75 160.105469 330.054688 166.425781 329.949219 C 199.632812 329.949219 228.074219 321.242188 251.753906 303.828125 C 275.433594 286.414062 291.234375 262.578125 299.148438 232.316406 L 224.207031 232.316406 C 222.957031 235.082031 221.507812 237.734375 219.859375 240.28125 C 218.210938 242.828125 216.382812 245.234375 214.371094 247.503906 C 212.363281 249.773438 210.191406 251.882812 207.863281 253.824219 C 205.535156 255.765625 203.078125 257.523438 200.484375 259.097656 Z M 200.484375 259.097656 " fill-opacity="1" fill-rule="nonzero"/><path fill="#ffffff" d="M 340.910156 48.300781 L 409 48.300781 L 409 328.046875 L 340.910156 328.046875 Z M 340.910156 48.300781 " fill-opacity="1" fill-rule="nonzero"/><path fill="#ffffff" d="M 775.058594 48.300781 L 775.058594 328.046875 L 706.941406 328.046875 L 706.941406 160.273438 L 644.410156 328.046875 L 589.457031 328.046875 L 526.511719 159.882812 L 526.511719 328.046875 L 458.394531 328.046875 L 458.394531 48.300781 L 538.847656 48.300781 L 617.324219 241.878906 L 694.996094 48.300781 Z M 775.058594 48.300781 " fill-opacity="1" fill-rule="nonzero"/><g clip-path="url(#860e544050)"><path fill="#ffffff" d="M 883.984375 312.605469 C 878.585938 309.613281 873.410156 306.269531 868.460938 302.574219 C 863.507812 298.878906 858.832031 294.871094 854.421875 290.542969 C 850.015625 286.214844 845.917969 281.613281 842.132812 276.730469 C 838.347656 271.851562 834.910156 266.734375 831.8125 261.390625 C 828.574219 255.804688 825.726562 250.03125 823.269531 244.0625 C 820.8125 238.09375 818.769531 231.984375 817.136719 225.742188 C 815.507812 219.496094 814.304688 213.167969 813.527344 206.761719 C 812.753906 200.351562 812.410156 193.921875 812.503906 187.464844 C 812.40625 181.027344 812.746094 174.613281 813.519531 168.222656 C 814.292969 161.832031 815.496094 155.523438 817.128906 149.296875 C 818.761719 143.066406 820.804688 136.980469 823.265625 131.03125 C 825.722656 125.078125 828.574219 119.324219 831.8125 113.761719 C 834.917969 108.429688 838.363281 103.332031 842.152344 98.460938 C 845.941406 93.59375 850.039062 89.003906 854.449219 84.6875 C 858.855469 80.371094 863.53125 76.371094 868.476562 72.683594 C 873.421875 68.996094 878.589844 65.65625 883.984375 62.667969 C 886.746094 61.167969 889.550781 59.757812 892.402344 58.4375 C 895.25 57.113281 898.136719 55.878906 901.0625 54.734375 C 903.988281 53.59375 906.945312 52.539062 909.9375 51.582031 C 912.929688 50.621094 915.945312 49.753906 918.988281 48.980469 C 922.035156 48.210938 925.101562 47.53125 928.1875 46.949219 C 931.273438 46.367188 934.375 45.882812 937.492188 45.492188 C 940.609375 45.105469 943.734375 44.8125 946.871094 44.617188 C 950.003906 44.421875 953.140625 44.324219 956.28125 44.324219 C 959.425781 44.324219 962.5625 44.421875 965.695312 44.617188 C 968.832031 44.8125 971.957031 45.105469 975.074219 45.492188 C 978.191406 45.882812 981.292969 46.367188 984.378906 46.949219 C 987.464844 47.53125 990.53125 48.210938 993.574219 48.980469 C 996.621094 49.753906 999.636719 50.621094 1002.628906 51.582031 C 1005.621094 52.539062 1008.578125 53.59375 1011.503906 54.734375 C 1014.429688 55.878906 1017.316406 57.113281 1020.164062 58.4375 C 1023.011719 59.757812 1025.820312 61.167969 1028.582031 62.667969 C 1033.957031 65.636719 1039.105469 68.957031 1044.027344 72.632812 C 1048.949219 76.304688 1053.597656 80.296875 1057.972656 84.605469 C 1062.347656 88.917969 1066.410156 93.503906 1070.160156 98.371094 C 1073.910156 103.234375 1077.308594 108.332031 1080.363281 113.664062 C 1083.542969 119.25 1086.335938 125.019531 1088.746094 130.976562 C 1091.15625 136.933594 1093.160156 143.023438 1094.757812 149.246094 C 1096.355469 155.472656 1097.535156 161.777344 1098.292969 168.15625 C 1099.046875 174.539062 1099.378906 180.941406 1099.28125 187.367188 C 1099.378906 193.824219 1099.046875 200.261719 1098.285156 206.671875 C 1097.519531 213.085938 1096.332031 219.417969 1094.714844 225.667969 C 1093.101562 231.921875 1091.078125 238.039062 1088.640625 244.019531 C 1086.203125 250 1083.378906 255.789062 1080.167969 261.390625 C 1077.113281 266.734375 1073.710938 271.847656 1069.964844 276.726562 C 1066.214844 281.609375 1062.152344 286.210938 1057.777344 290.539062 C 1053.402344 294.867188 1048.753906 298.878906 1043.832031 302.574219 C 1038.910156 306.269531 1033.761719 309.613281 1028.386719 312.605469 C 1025.628906 314.101562 1022.828125 315.511719 1019.980469 316.832031 C 1017.136719 318.15625 1014.253906 319.386719 1011.332031 320.53125 C 1008.410156 321.671875 1005.457031 322.722656 1002.46875 323.679688 C 999.484375 324.640625 996.46875 325.503906 993.429688 326.277344 C 990.386719 327.046875 987.328125 327.726562 984.242188 328.304688 C 981.160156 328.886719 978.0625 329.371094 974.953125 329.761719 C 971.839844 330.152344 968.71875 330.441406 965.585938 330.636719 C 962.457031 330.832031 959.320312 330.929688 956.183594 330.929688 C 953.046875 330.929688 949.914062 330.832031 946.785156 330.636719 C 943.652344 330.441406 940.53125 330.152344 937.417969 329.761719 C 934.304688 329.371094 931.210938 328.886719 928.125 328.304688 C 925.042969 327.726562 921.984375 327.046875 918.941406 326.277344 C 915.902344 325.503906 912.886719 324.640625 909.902344 323.679688 C 906.914062 322.722656 903.960938 321.671875 901.039062 320.53125 C 898.117188 319.386719 895.234375 318.15625 892.390625 316.832031 C 889.542969 315.511719 886.742188 314.101562 883.984375 312.605469 Z M 1009.855469 246.4375 C 1023.265625 231.578125 1029.96875 211.921875 1029.96875 187.464844 C 1029.96875 163.011719 1023.265625 143.289062 1009.855469 128.296875 C 996.449219 113.566406 978.570312 106.191406 956.222656 106.175781 C 933.648438 106.175781 915.65625 113.492188 902.246094 128.128906 C 888.835938 142.761719 882.132812 162.546875 882.132812 187.492188 C 882.132812 212.203125 888.835938 231.9375 902.246094 246.683594 C 915.65625 261.429688 933.671875 268.773438 956.296875 268.707031 C 978.609375 268.707031 996.472656 261.25 1009.882812 246.339844 Z M 1009.855469 246.4375 " fill-opacity="1" fill-rule="nonzero"/></g></svg>