<?xml version="1.0" encoding="utf-8"?>
<!-- Generator: Adobe Illustrator 23.0.3, SVG Export Plug-In . SVG Version: 6.00 Build 0)  -->
<svg version="1.1" id="Layer_1" xmlns="http://www.w3.org/2000/svg" xmlns:xlink="http://www.w3.org/1999/xlink" x="0px" y="0px"
	 viewBox="0 0 241.9 98.7" style="enable-background:new 0 0 241.9 98.7;" xml:space="preserve">
<style type="text/css">
	.st0{fill-rule:evenodd;clip-rule:evenodd;fill:#0F0F24;}
	.st1{fill-rule:evenodd;clip-rule:evenodd;fill:url(#SVGID_1_);}
</style>
<g>
	<path class="st0" d="M3.6,44.1c-0.1,5.2,3.7,6.8,8.3,6.8c2.7,0,6.7-1.5,6.7-5.2c0-2.9-2.9-4-5.2-4.6l-5.7-1.4C4.8,39,2,37.6,2,33.7
		c0-2.5,1.6-7.2,8.8-7.2c5,0,9.4,2.7,9.4,7.9h-2.4c-0.1-3.9-3.3-5.8-6.9-5.8c-3.3,0-6.4,1.3-6.4,5.1c0,2.4,1.8,3.4,3.8,3.9l6.2,1.5
		c3.6,1,6.6,2.5,6.6,6.7c0,1.7-0.7,7.3-9.7,7.3c-6,0-10.4-2.7-10.2-8.9L3.6,44.1L3.6,44.1z M43.5,34.7c-0.9-3.9-4.1-6.2-7.8-6.2
		c-6.7,0-9.6,5.6-9.6,11.2c0,5.6,2.8,11.2,9.6,11.2c4.7,0,7.7-3.6,8.2-8.2h2.4C45.6,49,41.7,53,35.7,53c-8,0-12-6.3-12-13.3
		c0-6.9,4-13.3,12-13.3c4.8,0,9.6,2.9,10.2,8.2L43.5,34.7L43.5,34.7z M50.2,52.5V27h2.4v25.4H50.2z M57.9,27h17.6v2.1H60.3v9.2h14.2
		v2.1H60.3v10h15.3v2.1H57.9V27L57.9,27z M79,27h2.7l14.8,21.5h0.1V27H99v25.4h-2.7L81.5,30.9h-0.1v21.5H79L79,27L79,27z
		 M122.7,34.7c-0.9-3.9-4.1-6.2-7.8-6.2c-6.7,0-9.6,5.6-9.6,11.2c0,5.6,2.8,11.2,9.6,11.2c4.7,0,7.7-3.6,8.2-8.2h2.4
		C124.8,49,120.9,53,114.9,53c-8,0-12-6.3-12-13.3c0-6.9,4-13.3,12-13.3c4.8,0,9.6,2.9,10.2,8.2L122.7,34.7L122.7,34.7z M129.2,27
		h17.6v2.1h-15.1v9.2h14.2v2.1h-14.2v10h15.3v2.1h-17.7L129.2,27L129.2,27z M0.9,58.1h19v4.7H6.5v5.5h12.3v4.3H6.5v6.2h13.7v4.7H0.9
		V58.1z M45.6,73.9c0,6.9-4.1,10.2-10.9,10.2c-6.8,0-10.8-3.3-10.8-10.2V58.1h5.6v15.8c0,2.8,0.7,5.5,5.2,5.5c4,0,5.3-1.7,5.3-5.5
		V58.1h5.6V73.9z M56,69.6h6.1c2.5,0,3.8-1.1,3.8-3.6c0-2.5-1.4-3.5-3.8-3.5H56V69.6z M50.4,58.1h13.7c4.6,0,7.4,3.2,7.4,7
		c0,3-1.2,5.2-4,6.4v0.1c2.7,0.7,3.5,3.4,3.7,6c0.1,1.6,0.1,4.6,1.1,6h-5.6c-0.7-1.6-0.6-4.1-0.9-6.1c-0.4-2.7-1.4-3.8-4.2-3.8H56
		v9.9h-5.6L50.4,58.1L50.4,58.1z M87.5,79.4c5,0,6.9-4.3,6.9-8.5c0-4.5-1.9-8.7-6.9-8.7c-5,0-6.9,4.3-6.9,8.7
		C80.6,75.1,82.5,79.4,87.5,79.4z M87.5,57.5c7.9,0,12.5,5.9,12.5,13.4c0,7.3-4.6,13.2-12.5,13.2S75,78.2,75,70.9
		C75,63.3,79.7,57.5,87.5,57.5z M109.4,70h4.3c2.6,0,4.9-0.6,4.9-3.8c0-3.2-2.3-3.8-4.9-3.8h-4.3C109.4,62.4,109.4,70,109.4,70z
		 M103.8,58.1h11.5c6.3,0,8.8,4,8.8,8.2c0,4.1-2.5,8.2-8.8,8.2h-5.9v9.1h-5.6V58.1L103.8,58.1z M127.6,58.1h19v4.7h-13.4v5.5h12.3
		v4.3h-12.3v6.2h13.7v4.7h-19.3C127.6,83.5,127.6,58.1,127.6,58.1z"/>
	
		<radialGradient id="SVGID_1_" cx="-583.1878" cy="453.4084" r="0.888" gradientTransform="matrix(0 68.8118 68.8129 0 -31036.4258 40167.4844)" gradientUnits="userSpaceOnUse">
		<stop  offset="0" style="stop-color:#9EDAEC"/>
		<stop  offset="1" style="stop-color:#00597C"/>
	</radialGradient>
	<path class="st1" d="M213.4,24.3c-1.3-0.7-2.8-2.4-3.8-4.4c-1-2-1.6-4.1-1.4-5.7l0.1-0.5l0.5,0.3c1.3,0.7,2.8,2.4,3.8,4.4
		c1,2,1.6,4.1,1.4,5.7l-0.1,0.6L213.4,24.3z M199.3,14.8c-0.8,0-1.5-0.1-2.1-0.4l-0.4-0.2l0.2-0.4c0.7-1.3,2.2-2.4,4-3
		c1.8-0.6,3.7-0.7,5-0.1l0.4,0.2l-0.2,0.4c-0.7,1.3-2.2,2.4-4,3C201.3,14.6,200.3,14.8,199.3,14.8z M195.2,18.6l-0.4-0.6l0.7-0.1
		c2.1-0.4,5.1,0.1,8.2,1.4c2.7,1.2,5.1,2.8,6.6,4.5c0.2,0.2,0.3,0.4,0.5,0.6l0.4,0.6l-0.7,0.1c-0.5,0.1-1.1,0.2-1.6,0.2
		c-1.9,0-4.2-0.5-6.6-1.5c-2.7-1.2-5.1-2.8-6.6-4.5C195.5,19,195.4,18.8,195.2,18.6z M224.9,18.1c-1.6-2.7-2.5-5.4-2.6-7.3l0-0.7
		l0.6,0.4c1.7,1,3.6,3.2,5.1,5.8c1.5,2.7,2.5,5.4,2.6,7.3l0,0.7L230,24C228.3,23,226.4,20.8,224.9,18.1L224.9,18.1z M222.3,31.4
		l-0.2-0.3c-1-1.1-1.4-2.6-1-4c0.4-1.4,1.5-2.5,3-2.8l0.3-0.1l0.2,0.2c1,1.1,1.4,2.6,1,4c-0.4,1.4-1.5,2.5-3,2.8
		C222.7,31.3,222.3,31.4,222.3,31.4z M211.4,6.9l0-0.4c-0.1-1.9,0.7-3.7,2.2-4.9c1.5-1.1,3.5-1.5,5.3-0.9l0.4,0.1l0,0.4
		c0.1,1.9-0.7,3.7-2.2,4.9c-1,0.8-2.2,1.2-3.5,1.2c-0.6,0-1.2-0.1-1.8-0.3L211.4,6.9L211.4,6.9z M237.1,44l0.1,0.5
		c0.5,1.9,0,4.2-1.3,6.3c-1.3,2-3.1,3.5-5,3.9l-0.5,0.1l-0.1-0.5c-0.5-1.9,0-4.2,1.3-6.3c1.3-2,3.1-3.5,5-3.9L237.1,44L237.1,44z
		 M187.2,16.5c-1.8-0.6-3.4-1.6-4.2-2.6l-0.3-0.4l0.5-0.1c1.2-0.3,3.1-0.1,5,0.5c1.8,0.6,3.4,1.6,4.2,2.6l0.3,0.4l-0.5,0.1
		c-0.5,0.1-0.9,0.2-1.4,0.2C189.7,17.1,188.5,16.9,187.2,16.5z M240.8,43l0.1,0.6l-0.6-0.2c-2.1-0.5-4.6-2.2-6.8-4.5
		c-2.2-2.3-3.7-5-4.1-7.1l-0.1-0.6l0.6,0.2c2.1,0.5,4.6,2.2,6.8,4.5C238.9,38.3,240.5,40.9,240.8,43z M193.3,14
		c-0.8-0.6-1.4-1.7-1.4-2.9c0-1.2,0.5-2.2,1.4-2.9l0.2-0.2l0.2,0.2c0.8,0.6,1.4,1.7,1.4,2.9c0,1.2-0.5,2.2-1.4,2.9l-0.2,0.2
		L193.3,14z M228.3,69.8c1.5-1.4,3.1-2.4,4.6-2.8c-1.3-0.7-2.5-1.8-3.4-3.2C229.3,65.8,228.9,67.8,228.3,69.8z M224.3,65.7
		c0.2-1.1,0.5-2.1,0.8-3.2c-0.8,0.9-1.7,1.7-2.7,2.5c-1.1,0.8-2.3,1.6-3.5,2.2c0.9,0.5,1.7,1,2.5,1.7c0.9,0.8,1.7,1.6,2.4,2.5
		C223.7,69.6,223.9,67.7,224.3,65.7L224.3,65.7z M215.6,79.3c1.6-1,3.3-1.8,4.9-2.4c-1.4-0.6-2.7-1.3-3.8-2.3
		c-0.9-0.7-1.6-1.5-2.3-2.4c0,1.5-0.1,3.1-0.4,4.6c-0.3,1.7-0.9,3.4-1.7,5C213.3,80.8,214.4,80,215.6,79.3L215.6,79.3z M219,82.8
		l0.1-0.2c-1.6,1.1-3.2,2-5,2.7c0.2,0.1,0.4,0.2,0.6,0.3c1,0.6,1.8,1.6,2.1,2.8C217.2,86.8,218,84.8,219,82.8L219,82.8z M215.6,34.1
		c-1.1-0.7-2.2-1.5-3.1-2.4c0.7,1.5,1.3,3.1,1.6,4.7c0.3,1.5,0.5,3,0.5,4.4c0.6-0.7,1.3-1.4,2.1-2c1.5-1.1,3.1-1.7,4.7-2
		C219.5,36.4,217.5,35.4,215.6,34.1L215.6,34.1z M216,51.5c0.2,1.6,0.3,3.2,0.3,4.9c-0.1,2.2-0.4,4.4-1,6.3c0.9-1.1,1.9-2,3-2.9
		c1.9-1.4,3.9-2.5,5.9-3.1c-2-0.6-4.1-1.7-5.9-3.1C217.5,53,216.7,52.3,216,51.5z M223.4,41.7c-0.7,1.1-1.6,2-2.7,2.8
		c-0.9,0.6-1.8,1.1-2.8,1.5c1.5,0.7,3,1.5,4.3,2.6c0.8,0.6,1.6,1.3,2.3,2.1c-0.3-1.1-0.6-2.2-0.8-3.3
		C223.4,45.4,223.3,43.5,223.4,41.7L223.4,41.7z M210,62c-0.4-1.9-0.5-3.8-0.4-5.8c0.1-2,0.3-3.9,0.8-5.7c-1.4,1.6-3.1,3-5.1,4.2
		c-1.1,0.7-2.2,1.2-3.3,1.7c1.1,0.4,2.2,1,3.2,1.6C206.9,59.2,208.6,60.5,210,62L210,62z M207.7,75.5c0.1-0.6,0.3-1.2,0.5-1.8
		c-1,0.8-2,1.6-3.1,2.2c-1.2,0.7-2.4,1.3-3.7,1.8c0.8,0.3,1.5,0.7,2.2,1.1c1.4,0.8,2.7,1.7,3.8,2.8
		C207.2,79.7,207.3,77.6,207.7,75.5L207.7,75.5z M200.9,86.8c1.1-0.6,2.3-1,3.5-1.3c-1.2-0.4-2.4-0.9-3.6-1.6
		c-1.6-0.9-3-1.9-4.1-3.1c0.3,1.2,0.5,2.6,0.5,4c0,1.8-0.3,3.6-0.9,5.1C197.6,88.7,199.1,87.7,200.9,86.8z M203.4,94.5
		c0-1.2,0.3-2.5,0.8-3.8c-0.6,0.3-1.1,0.7-1.7,0.9c-0.8,0.4-1.7,0.8-2.5,1l0,0C201.3,93.1,202.5,93.7,203.4,94.5z M198.2,66.1
		c0,2.5-0.4,4.9-1.1,7c1.4-1.4,2.9-2.6,4.6-3.6c1.9-1.1,3.9-2,5.8-2.4c-1.9-0.5-3.8-1.3-5.7-2.4c-1.4-0.9-2.8-1.9-4-3
		C198.1,63.1,198.2,64.6,198.2,66.1z M202.4,43.7c-2-1-3.8-2.3-5.2-3.7c0.7,1.9,1,4,1,6.2c0,1.9-0.3,3.7-0.7,5.4
		c1.3-1.3,2.8-2.5,4.4-3.5c1.9-1.2,3.8-2,5.7-2.5C205.8,45.2,204,44.6,202.4,43.7z M203.6,34.1c-1.2,0.6-2.4,1.1-3.6,1.4
		c1.7,0.4,3.6,1.1,5.3,2c1.2,0.6,2.3,1.3,3.3,2.1c-0.2-0.6-0.3-1.2-0.5-1.8c-0.5-2.3-0.6-4.6-0.4-6.6
		C206.5,32.3,205.1,33.3,203.6,34.1z M191.7,28.5c0-2,0.4-3.9,1.1-5.5c-1.4,1.3-3.3,2.4-5.4,3.3c-1.1,0.5-2.1,0.8-3.2,1.1
		c1.2,0.3,2.5,0.8,3.7,1.5c1.5,0.8,3,1.8,4.1,2.9C191.8,30.7,191.7,29.6,191.7,28.5z M188.5,87.5c1.6,0.7,3,1.6,4.3,2.5
		c-0.6-1.5-0.9-3.3-0.9-5.1c0-1.4,0.2-2.8,0.5-4.1c-1.2,1.2-2.6,2.3-4.2,3.2c-1.6,0.9-3.3,1.5-4.8,1.9
		C185,86.1,186.8,86.7,188.5,87.5L188.5,87.5z M189.3,92.6c0.2,0,0.3-0.1,0.5-0.1c-1-0.3-2.1-0.7-3-1.1c-0.9-0.4-1.7-0.9-2.6-1.4
		c0.9,1.6,1.4,3.3,1.4,4.7C186.5,93.8,187.8,93,189.3,92.6z M180.7,82.5c1.2-1.4,2.8-2.6,4.7-3.7c0.7-0.4,1.5-0.8,2.2-1.1
		c-1.3-0.5-2.6-1.1-3.7-1.8c-1.4-0.9-2.7-1.9-3.9-3c0.2,0.8,0.4,1.5,0.6,2.3C181.1,77.8,181.1,80.4,180.7,82.5L180.7,82.5z
		 M177.9,63.2c1.5-1.9,3.5-3.7,5.8-5.1c1.1-0.7,2.3-1.3,3.5-1.7c-1.3-0.5-2.6-1.1-3.8-1.8c-2.2-1.3-4.1-2.9-5.6-4.6
		c0.5,1.9,0.8,3.9,0.9,6.1C178.8,58.5,178.5,61,177.9,63.2L177.9,63.2z M191.6,51.6c-0.5-1.8-0.7-3.6-0.7-5.4c0-2.2,0.3-4.4,1-6.2
		c-1.4,1.3-3.1,2.6-5,3.6c-1.9,1-3.8,1.7-5.7,2c1.9,0.5,3.9,1.3,5.8,2.4C188.6,49,190.2,50.2,191.6,51.6L191.6,51.6z M192,73.3
		c-0.8-2.1-1.2-4.6-1.2-7.2c0-1.6,0.2-3.2,0.5-4.7c-1.3,1.2-2.7,2.3-4.2,3.2c-1.9,1.1-3.8,2-5.7,2.4c1.9,0.5,3.9,1.3,5.9,2.5
		C189,70.5,190.6,71.8,192,73.3z M180.1,37.6c-0.2,1.1-0.6,2.2-1,3.2c1.4-1.3,3.1-2.4,4.8-3.3c1.6-0.8,3.3-1.5,5.1-1.9
		c-1.2-0.4-2.4-0.8-3.6-1.4c-2-1-3.8-2.4-5.1-3.9C180.8,32.4,180.7,35,180.1,37.6z M172.7,79c1.2,0.8,2.3,1.6,3.3,2.5
		c-0.8-1.6-1.3-3.2-1.7-5c-0.3-1.5-0.5-3.1-0.4-4.6c-0.7,0.9-1.4,1.7-2.3,2.4c-1.2,1-2.5,1.7-3.8,2.3C169.5,77.2,171.2,78,172.7,79z
		 M173.6,85.5c0.2-0.1,0.4-0.2,0.6-0.3c-1.8-0.7-3.4-1.6-5-2.7l0.1,0.2c1.1,2,1.9,4,2.2,5.7C171.8,87.1,172.6,86.1,173.6,85.5
		L173.6,85.5z M164.5,71.2c0.7-0.9,1.5-1.8,2.4-2.5c0.8-0.6,1.6-1.2,2.5-1.7c-1.2-0.6-2.4-1.3-3.5-2.2c-1-0.8-2-1.7-2.8-2.6
		c0.4,1.1,0.7,2.3,0.9,3.6C164.4,67.6,164.5,69.4,164.5,71.2L164.5,71.2z M164.3,47.2c-0.2,1.2-0.5,2.3-0.8,3.4
		c0.8-0.8,1.6-1.6,2.5-2.3c1.4-1.1,2.9-1.9,4.5-2.6c-1.1-0.4-2.2-0.9-3.2-1.6c-1.1-0.8-2-1.7-2.7-2.8
		C164.7,43.1,164.6,45.1,164.3,47.2z M172,56.2c-0.1-1.7,0-3.4,0.3-4.9c-0.7,0.8-1.5,1.5-2.3,2.1c-1.9,1.4-4,2.5-5.9,3.1
		c2,0.6,4,1.7,5.9,3.1c1.1,0.9,2.1,1.8,3,2.9C172.4,60.6,172,58.4,172,56.2L172,56.2z M172.7,33.9c-1.8,1.2-3.8,2.2-5.5,2.8
		c1.5,0.3,2.9,1,4.2,1.9c0.9,0.7,1.7,1.4,2.4,2.3c0-1.5,0.2-3.1,0.5-4.6c0.4-1.7,0.9-3.3,1.6-4.7C174.8,32.4,173.8,33.2,172.7,33.9
		L172.7,33.9z M171.3,25.3c-0.3,1.7-1.1,3.7-2.2,5.7c0.4-0.3,0.8-0.6,1.2-0.8c1.2-0.8,2.5-1.5,3.9-2.1
		C172.9,27.5,171.9,26.5,171.3,25.3L171.3,25.3z M155.2,66.7c1.5,0.4,3.3,1.5,4.8,2.9c-0.3-1-0.5-2-0.7-3c-0.2-1.2-0.4-2.3-0.5-3.5
		C157.9,64.7,156.6,66,155.2,66.7L155.2,66.7z M154.8,47.1c1.6,0.6,3.2,1.8,4.3,3.6c0-1.4,0.1-2.9,0.4-4.3c0.1-0.9,0.3-1.7,0.6-2.6
		C158.3,45.4,156.4,46.6,154.8,47.1z M228.7,55.4c1.9,0.7,3.8,2.5,4.9,4.8c1.1,2.3,1.4,4.9,0.7,6.8l0,0.2c-0.3,1.7-1.5,3.8-3.3,5.5
		c-1.2,1.1-2.5,2-3.7,2.6c0.9,0.9,1.4,2.2,1.4,3.5c0,1.6-0.7,3.2-1.9,4.1l-0.3,0.2l-0.3-0.2c-1-0.7-1.7-1.8-2-3
		c-0.4,1.5-1.1,3.1-2,4.7c-1.5,2.7-3.4,5-5,6.1l-0.6,0.4c0,0-1.5,0.9-3.8,0.3c0,0-0.1,0-0.1,0l-0.1,0c-0.1,0-0.2-0.1-0.3-0.1
		c-0.3-0.1-0.5-0.2-0.8-0.4c-0.7-0.4-1.3-1.1-1.7-1.8c-0.3,0.9-0.7,1.8-1.1,2.7c-1.1,2-2.6,3.5-4.2,4.2l-0.3,0.2
		c-0.2,0.1-0.5,0.2-0.7,0.3c-1.2,0.3-2.8,0.3-4.3-0.2c-1.1-0.3-2.2-0.8-3-1.5c0,0.2,0,0.3,0,0.5c0,1.2-0.5,2.2-1.4,2.9l-0.3,0.2
		l-0.2-0.2c-0.8-0.6-1.4-1.7-1.4-2.9c0-0.2,0-0.4,0-0.5c-0.8,0.5-1.7,1-2.7,1.3c-0.1,0-0.2,0.1-0.3,0.1c-0.1,0-0.2,0-0.3,0.1l-0.1,0
		c-0.1,0-0.1,0-0.2,0c-0.2,0.1-0.5,0.1-0.7,0.1c0,0,0,0,0,0l-0.2,0c-1.9,0.2-2.9-0.1-2.9-0.1L185,96c-1.8-0.6-3.6-2.3-5-4.5
		c-0.6-0.9-1-1.9-1.4-3c-0.4,0.9-1,1.6-1.8,2.1c-0.6,0.4-1.2,0.6-1.9,0.6c-0.1,0-0.1,0-0.2,0c-0.1,0-0.2,0-0.4,0h0
		c-1.6,0-2.6-0.5-2.6-0.5l-0.6-0.4c-1.6-1.1-3.5-3.4-5-6.1c-0.9-1.6-1.6-3.2-2-4.7c-0.3,1.2-1,2.3-2,3l-0.3,0.2l-0.3-0.2
		c-1.2-0.9-2-2.5-1.9-4.1c0-1.3,0.5-2.5,1.4-3.5c-1.3-0.5-2.6-1.4-3.7-2.6c-1.8-1.7-3-3.8-3.3-5.5l0-0.1l-0.1-0.2
		c-0.7-1.9-0.4-4.4,0.7-6.7c0.7-1.4,1.7-2.7,2.8-3.6c-1-0.7-1.9-1.7-2.6-2.8c-1.3-2-1.7-4.4-1.3-6.3l0.1-0.5l0,0l0,0
		c0.4-2.1,1.9-4.8,4.1-7.1c1-1,2-2,3.2-2.8c-0.6-0.5-1-1.1-1.2-1.9c-0.4-1.4,0-2.9,1-4l0.2-0.3l0.3,0.1c1.2,0.3,2.2,1.1,2.7,2.2
		c0.4-1.2,1-2.3,1.7-3.5c1.6-2.7,3.5-4.8,5.1-5.8l0.3-0.2c2.4-1.7,5.7-1.2,7.6,1c0.3-1,0.8-2.1,1.5-3.2c1.2-1.9,2.8-3.4,4.2-4
		l0.5-0.2l0,0.5c0,1.5-0.7,3.6-1.9,5.5l-0.2,0.3c1-0.6,2-1.2,3.1-1.6c1.6-0.7,3.1-1.1,4.6-1.4c3.8-0.3,4.2,0.3,4.2,0.3l0.1,0.1
		c1.5,1.7,2.4,4.6,2.4,7.7c0,1.1-0.1,2.2-0.3,3.2c1.2-1.2,2.6-2.1,4.2-2.9c2.4-1.3,5-2,7.2-2c0.3,0,0.6,0,0.9,0c0,0,0.1,0,0.1,0
		l0.1,0c2.3,0.1,5.6,1.4,8.7,3.4c3.1,2,5.5,4.5,6.6,6.6l0.3,0.4c1.7,1.9,3.2,5.3,3.9,9.1C229.4,49.9,229.4,53.1,228.7,55.4
		L228.7,55.4z"/>
</g>
</svg>
