<svg xmlns="http://www.w3.org/2000/svg" width="350.64" height="107.82" viewBox="0 0 350.64 107.82"><g transform="translate(-161.95 -738.96)"><g transform="translate(47.55 495.23)"><path d="M147.33,264.69,114.4,297.64l53.9,53.91,32.95-32.95-11.98-11.97L168.3,327.6l-29.96-29.96,20.98-20.97Z" fill="#0087cd" fill-rule="evenodd"/><path d="M156.31,297.64l11.99,11.98,20.97-20.97,20.96,20.97,11.98-11.98L168.3,243.73l-11.99,11.98,20.97,20.96Z" fill="#0a416e" fill-rule="evenodd"/></g><g transform="translate(47.55 495.23)"><path d="M234.2,270.68h14.85v3.29h-5.54v17.67h-3.77V273.97H234.2v-3.29Z" fill="#0a416e"/><path d="M256.63,288.35h8v3.29H252.86V270.68h11.77v3.29h-8v5.33h7.34v3.29h-7.34Z" fill="#0a416e"/><path d="M272.05,284.13c0,2.61,1.02,4.31,3.77,4.31a3.81,3.81,0,0,0,3.8-2.37l2.93,1.44c-1.41,3-3.41,4.37-6.74,4.37-5.3,0-7.55-3.24-7.55-8.06v-5.33c0-4.82,2.16-8.06,7.46-8.06a6.8,6.8,0,0,1,6.74,4.31l-2.93,1.53a4.131,4.131,0,0,0-3.8-2.4c-2.76,0-3.68,1.71-3.68,4.31Z" fill="#0a416e"/><path d="M296.88,282.6h-7.34v9.04h-3.77V270.68h3.77v8.6h7.34v-8.6h3.77v20.96h-3.77Z" fill="#0a416e"/><path d="M305.63,270.68h3.24l8.41,13.81h.12V270.68h3.56v20.96h-3.29l-8.36-13.81h-.12v13.81h-3.56Z" fill="#0a416e"/><path d="M325.22,284.46V277.9c0-4.49,2.46-7.46,7.45-7.46s7.43,2.97,7.43,7.46v6.56c0,4.49-2.43,7.43-7.43,7.43S325.22,288.95,325.22,284.46Zm11.11-.33V278.2c0-2.79-.93-4.31-3.65-4.31-2.69,0-3.68,1.53-3.68,4.31v5.93c0,2.82.99,4.31,3.68,4.31C335.4,288.44,336.33,286.95,336.33,284.13Z" fill="#0a416e"/><path d="M344.36,270.68h3.77v17.67h8v3.29H344.36Z" fill="#0a416e"/><path d="M359.16,284.46V277.9c0-4.49,2.46-7.46,7.46-7.46s7.43,2.97,7.43,7.46v6.56c0,4.49-2.43,7.43-7.43,7.43S359.16,288.95,359.16,284.46Zm11.11-.33V278.2c0-2.79-.93-4.31-3.65-4.31-2.69,0-3.68,1.53-3.68,4.31v5.93c0,2.82.99,4.31,3.68,4.31C369.34,288.44,370.27,286.95,370.27,284.13Z" fill="#0a416e"/><path d="M384.97,280.03h7.28v8.09a8.067,8.067,0,0,1-7.22,3.77c-5.3,0-7.46-3.26-7.46-8.09v-5.3c0-4.82,2.16-8.06,7.46-8.06a6.8,6.8,0,0,1,6.74,4.31l-2.94,1.53a4.131,4.131,0,0,0-3.8-2.4c-2.75,0-3.68,1.71-3.68,4.31v5.9c0,2.61,1.02,4.31,3.77,4.31a4.28,4.28,0,0,0,3.59-1.44v-3.71h-3.74Z" fill="#0a416e"/><path d="M396.69,270.68h3.77v20.96h-3.77Z" fill="#0a416e"/><path d="M408.49,284.13c0,2.61,1.02,4.31,3.77,4.31a3.8,3.8,0,0,0,3.8-2.37l2.93,1.44c-1.41,3-3.41,4.37-6.74,4.37-5.3,0-7.55-3.24-7.55-8.06v-5.33c0-4.82,2.16-8.06,7.46-8.06a6.8,6.8,0,0,1,6.74,4.31l-2.93,1.53a4.131,4.131,0,0,0-3.8-2.4c-2.76,0-3.68,1.71-3.68,4.31Z" fill="#0a416e"/><path d="M422.21,270.68h3.77v8.54h1.53l4.85-8.54h4.19l-5.87,9.91,6.11,11.05h-4.25l-4.91-9.1h-1.65v9.1h-3.77Z" fill="#0a416e"/><path d="M443.59,288.35h8v3.29H439.82V270.68h11.77v3.29h-8v5.33h7.34v3.29h-7.34Zm5.6-24.82-2.85,5.18h-2.43l1.56-5.18Z" fill="#0a416e"/><path d="M238.45,317.08c0,2.61,1.02,4.31,3.77,4.31a3.8,3.8,0,0,0,3.8-2.37l2.93,1.44c-1.41,3-3.41,4.37-6.74,4.37-5.3,0-7.55-3.24-7.55-8.06v-5.33c0-4.82,2.16-8.06,7.46-8.06a6.8,6.8,0,0,1,6.74,4.31l-2.93,1.53a4.131,4.131,0,0,0-3.8-2.4c-2.76,0-3.68,1.71-3.68,4.31v5.95Z" fill="#0a416e"/><path d="M255.94,321.3h8v3.29H252.17V303.63h11.77v3.29h-8v5.33h7.34v3.29h-7.34Z" fill="#0a416e"/><path d="M268.31,303.63h3.24l8.42,13.81h.12V303.63h3.56v20.96h-3.29L272,310.79h-.12V324.6h-3.56V303.63Z" fill="#0a416e"/><path d="M287.42,303.63h14.85v3.29h-5.54v17.67h-3.77V306.92h-5.54Z" fill="#0a416e"/><path d="M306.08,303.63h6.32c4.67,0,7.52,1.86,7.52,6.65,0,3.86-2.07,5.39-3.65,6.02l4.52,8.3H316.6l-3.92-7.7h-2.85v7.7h-3.74V303.63Zm3.74,9.98h2.69c2.28,0,3.59-.84,3.59-3.32,0-2.64-1.38-3.35-3.89-3.35h-2.4v6.67Z" fill="#0a416e"/><path d="M323.99,317.77V303.63h3.77v13.84c0,2.4.72,3.98,3.53,3.98s3.53-1.59,3.53-3.98V303.63h3.77v14.14c0,4.49-2.46,7.07-7.31,7.07C326.45,324.84,323.99,322.26,323.99,317.77Z" fill="#0a416e"/><path d="M358.17,312.23h-.12l-4.46,8.92h-1.92l-4.46-8.92h-.12V324.6h-3.56V303.64h2.9l6.14,12.07h.12l6.17-12.07h2.87V324.6h-3.56V312.23Z" fill="#0a416e"/><path d="M375.72,303.63h6.17c4.76,0,7.64,1.38,7.64,6.89,0,4.85-2.72,6.83-7.37,6.83h-2.67v7.25h-3.77V303.63Zm3.77,10.43h2.52c2.69,0,3.71-1.14,3.71-3.65,0-2.64-1.05-3.47-3.92-3.47h-2.31v7.12Z" fill="#0a416e"/><path d="M393.48,303.63h6.32c4.67,0,7.52,1.86,7.52,6.65,0,3.86-2.07,5.39-3.65,6.02l4.52,8.3H404l-3.92-7.7h-2.85v7.7h-3.74V303.63Zm3.74,9.98h2.7c2.28,0,3.59-.84,3.59-3.32,0-2.64-1.38-3.35-3.89-3.35h-2.4Z" fill="#0a416e"/><path d="M414.93,319.95l-1.47,4.64h-3.8l6.77-20.96h3.53l6.77,20.96H422.9l-1.44-4.64Zm5.66-3.32-2.34-7.7h-.12l-2.34,7.7Z" fill="#0a416e"/><path d="M441.02,315.55h-7.34v9.04h-3.77V303.63h3.77v8.6h7.34v-8.6h3.77v20.96h-3.77Z" fill="#0a416e"/><path d="M453.24,319.95l-1.47,4.64h-3.8l6.77-20.96h3.53l6.77,20.96h-3.83l-1.44-4.64Zm5.66-3.32-2.34-7.7h-.12l-2.34,7.7Z" fill="#0a416e"/></g></g></svg>